# xmcd
#
# Track frame offsets:
#	150
#	15833
#	33408
#	51822
#	66560
#	78953
#	95604
#	112758
#	133107
#	150654
#	164621
#	183212
#	198148
#	220101
#	242490
#	259610
#	275933
#	292691
#	308470
#	322569
#
# Disc length: 4462 seconds
#
# Revision: 0
# Processed by: cddbd v1.5.2PL0 Copyright (c) Steve Scherf et al.
# Submitted via: dBpowerAMP V4.0
#
DISCID=00116c14
DTITLE=Various Artist - songs from the neighbourhood
DYEAR=1900
DGENRE=
TTITLE0=Big Picture - our house
TTITLE1=Big Picture - summer
TTITLE2=the hollies - so damn beautiful
TTITLE3=Sam hird - too young for the blues
TTITLE4=Danny Handley - a happy sunny sunday
TTITLE5=ellie lawson - gotta get up from here
TTITLE6=international one - moonshine and roses
TTITLE7=barney williams - guiding star
TTITLE8=slack alice - get your shoes on
TTITLE9=milltown brothers - roses
TTITLE10=The rubbish - life is what you make it
TTITLE11=Michelle lawson - beautiful thing
TTITLE12=dead end kid - start (then start again)
TTITLE13=LNH - Don't want to marry you in the morning
TTITLE14=simon webbe - pusherman
TTITLE15=Los Galgos - the girl from el paranzo
TTITLE16=Superior Species - monkey
TTITLE17=Sean G Clarke - Roundabout
TTITLE18=Acousticelli - old pendle
TTITLE19=George Chandler - the best dreams begin with B
EXTD=
EXTT0=
EXTT1=
EXTT2=
EXTT3=
EXTT4=
EXTT5=
EXTT6=
EXTT7=
EXTT8=
EXTT9=
EXTT10=
EXTT11=
EXTT12=
EXTT13=
EXTT14=
EXTT15=
EXTT16=
EXTT17=
EXTT18=
EXTT19=
PLAYORDER=
